<svg xmlns="http://www.w3.org/2000/svg" version="1.1" xmlns:xlink="http://www.w3.org/1999/xlink" xmlns:svgjs="http://svgjs.dev/svgjs" width="2000" height="2250" viewBox="0 0 2000 2250"><g transform="matrix(1,0,0,1,0,0)"><svg viewBox="0 0 320 360" data-background-color="#ffffff" preserveAspectRatio="xMidYMid meet" height="2250" width="2000" xmlns="http://www.w3.org/2000/svg" xmlns:xlink="http://www.w3.org/1999/xlink"><g id="tight-bounds" transform="matrix(1,0,0,1,0,0)"><svg viewBox="0 0 320 360" height="360" width="320"><g><svg></svg></g><g><svg viewBox="0 0 320 360" height="360" width="320"><g><path xmlns="http://www.w3.org/2000/svg" d="M219.58 41.008c0.707 0 6.365 2.829 9.547 3.89-1.061 0.354-3.536-0.707-6.365-1.768 0.707 0 2.122 0.354 3.536 1.06-0.707-0.707-6.011-2.475-6.718-3.182M166.895 30.047c1.061-0.354 13.436 1.414 19.094 1.768 0.354-0.354-0.707-0.354-2.122-0.707 1.768-0.354 5.304 0.707 7.779 1.06-7.425 0.354-15.558-1.768-22.629-1.06-2.475 0-0.707-0.707-2.122-1.061M156.641 30.047c6.365 0 11.315 0 2.121 0.707-1.061-0.354-2.475-0.354-2.121-0.707M256.707 59.395c0.707 0 3.536 3.182 4.95 4.243-0.354 0.354-3.182-2.475-4.596-3.536 0.354 0.354 0 0-0.354-0.707M249.635 54.798c-2.829-2.475-3.889-2.475-4.243-3.889 2.475 1.414 4.243 2.829 4.243 3.889M204.022 32.522c0.354-0.354 1.061 0.354 2.829 0.707-2.122-0.354-1.768 0-1.061 0.707-2.475-0.354-3.182-0.707-2.475-1.414 1.414 0.707 1.768 0.354 0.707 0M103.602 36.765c0-0.354 1.414-1.061 2.475-1.414-1.061 0.707-0.707 1.061 1.061 0.353 0 0.354-2.122 1.061-3.536 1.768 0.707-0.354 1.414-1.414 0-0.707M211.094 28.986c-1.061 0.354-4.95-1.768-8.84-2.475-2.122-0.707 8.486 1.768 8.84 2.475M2.475 203.66c2.122 8.84 0.707 8.486 0 0M2.829 150.621c0.354-1.414 0.707-5.304 1.06-4.95-1.061 8.486-2.829 12.376-3.182 18.74 1.061-5.657-0.354 3.182-0.707 5.304 0.354 2.829 0.354-1.768 1.061-1.06 0.707 1.061-1.414 15.912-0.707 7.779-0.707 7.425 0 15.558 1.414 17.679-1.768 11.315 7.072 36.773 8.84 42.077 0.354 0.354 0-1.768 0.707-0.353 0.707 4.597 3.889 7.779 4.95 12.729 1.061 1.414 5.304 9.193 6.011 10.962 1.414 2.829 2.122 2.475 3.536 5.303 4.243 8.133 10.961 15.912 17.326 23.337 20.508 24.044 51.978 43.845 86.984 50.918 35.006 7.425 71.779 2.122 100.419-11.669 1.768-1.061 1.414-1.414 3.536-2.122 9.901-3.182 21.923-13.436 28.641-17.326 3.182-3.536 11.669-9.547 12.73-13.082 6.011-4.95 12.022-13.083 15.204-18.387 1.768-2.829 3.182-2.829 3.889-4.597-0.354 0 5.657-7.425 7.426-11.668-0.707 0-1.768 2.122-1.768 0 12.729-24.398 19.801-57.282 15.911-79.912 0.707 27.934-6.365 59.05-19.801 78.851-6.011 12.729-18.387 26.519-29.701 36.42-1.768 1.768-3.536 3.889-5.658 5.304-6.718 5.657-14.144 10.254-21.922 14.497-18.387 10.254-38.895 19.094-62.94 19.447 41.37-3.536 78.497-24.398 99.006-49.856-15.558 15.204-22.276 21.215-39.602 30.055-1.414 2.475-13.083 7.425-20.862 9.547 4.597-2.122 14.144-5.657 17.326-8.486-25.812 12.376-54.453 19.448-81.326 15.558 10.254 0 24.751 0.354 38.541-2.121 2.122-0.707 3.182-1.414 5.658-1.768 26.873-6.011 52.685-19.094 71.072-37.481-10.608 9.547-26.519 20.862-36.774 24.398 9.547-5.304 26.873-15.558 32.53-23.337-11.315 11.315-32.53 22.63-45.966 27.58-2.122 0.354 1.414-1.414-2.122 0-4.243 1.061-2.475 1.061-3.536 1.768-16.265 4.597-35.006 8.486-50.563 7.072-2.829-0.354-3.889-1.061-6.365-1.061-2.829-0.354-5.304-0.354-8.486-0.354-12.376-1.414-25.812-6.365-35.713-10.607-5.304-2.475-10.608-4.243-15.912-7.426-4.243-2.475-7.779-5.304-11.314-8.132-13.436-9.901-24.751-19.801-35.36-33.945-19.094-26.519-28.994-59.757-27.58-92.641 1.414-32.884 14.497-65.061 35.359-88.752-1.061 1.061 1.414-2.475 3.536-4.596 0 0.707-0.354 1.768 2.122-0.707 2.122-2.475-0.707-0.707 0.353-2.122 21.923-24.044 60.111-43.492 99.36-44.199 1.414-1.061 3.889-2.475 6.718-1.768 0 0.354-1.768 0.354-1.768 0.354 3.889-0.354 7.425-0.354 9.193 0.353 0.354-0.354-1.414-0.707 0-0.707 2.475 0.707 3.182 0 4.597 0.707-1.061 0-2.122 0-2.829 0.354 8.84 0 14.497 2.122 23.337 2.829-4.597-1.061-5.657-1.061-9.193-2.122 3.889 0.707 5.657 1.414 7.425 1.061-0.707 0-0.354-1.061 0.354-0.707 7.072 1.768 7.779 2.475 15.204 4.95 0.707-0.707-3.182-1.061-4.243-2.122 7.072 2.475 13.436 4.243 17.68 7.072-1.414-1.061-5.657-2.475-8.84-3.889-0.354 0.354 1.061 0.707 1.414 1.414-3.536-1.768-8.486-3.536-13.436-4.243 4.243 1.061 7.072 2.475 8.84 3.182-3.889-0.707-8.84-3.182-14.498-4.243 9.193 2.829 26.519 9.193 37.127 14.851-3.889-2.475-8.486-4.243-10.961-5.657 2.122 0.354 4.597 1.768 4.597 1.06 2.475 1.061 5.657 3.536 7.425 3.89-3.182-2.122-9.547-5.304-11.668-6.365 26.519 12.022 50.21 32.177 65.414 57.989 1.414 2.475 3.536 8.133 5.304 8.84-0.354-1.768-1.768-2.829-3.182-5.657 0.707 0 0.707-1.061 0-2.122-1.414-1.768 0 1.414-1.415-0.354-6.365-11.669-14.144-21.923-26.165-33.237 6.718 6.365 1.768 1.768 0.353-0.354 9.193 8.133 19.801 21.923 24.398 28.995-0.707-1.061-1.061-1.768-0.707-1.768 8.486 14.497 13.79 27.58 19.094 46.32 0.354 0.354 0-1.414 0.707-0.353 3.536 14.851 4.597 27.227 4.243 38.541 2.829-19.094-3.536-48.796-14.851-72.133-1.414-2.829-1.414-0.707-2.829-3.889 0-1.061-1.061-3.182-1.768-4.597-14.144-23.337-31.47-39.956-51.978-53.038 1.414 0.707 4.243 2.829 4.244 2.475-38.188-25.105-82.387-28.641-118.807-20.862-2.475 1.061-3.536 2.122-6.365 3.536 5.304-1.768 8.486-2.122 13.437-3.183 1.061-1.061-4.597 0.354-2.122-0.707 0.354 0.354 4.95-0.707 6.011-0.353 0 0.354-1.414 0.707-1.768 1.06 11.669-2.475 23.691-2.829 33.945-2.121-6.011 0.354-16.972-0.707-20.508 1.061 3.536-0.354 8.486-0.707 11.668-0.354-4.243 0-12.022 0.354-15.558 0.707-0.354-0.354 5.657-1.061 1.768-1.06-1.768 0.354-4.597 0.354-5.657 1.414-30.409 2.829-60.111 18.74-80.973 37.481-4.243 3.536-9.193 7.425-12.375 11.314-7.779 8.84-12.729 17.68-18.387 25.459 3.536-7.425 11.315-18.74 20.508-28.287 9.193-9.547 19.094-17.68 24.398-21.923 0 1.414 8.486-5.304 11.669-7.425-2.122 1.768 1.414-0.707 2.121-0.354 11.315-6.718 20.508-9.193 30.763-13.083-2.475 0.707-4.597 1.414-4.951 1.061 2.475-0.707 3.889-1.414 3.536-1.768-9.901 2.829-25.459 9.547-37.834 16.972 22.276-15.204 50.564-24.398 78.497-24.751 27.934-0.707 55.16 6.365 76.729 17.68 14.497 6.365 28.287 18.033 39.249 29.348 3.182 2.829 0.707-0.707 5.304 4.243-1.414-0.707-2.475-1.414-0.707 0.707 2.829 3.182-0.707-2.475 3.889 3.182-0.354 0-1.768-1.768-1.768-1.061 12.376 10.961 21.923 30.762 27.58 43.846-1.414-5.304-4.95-12.729-7.779-18.033 8.486 15.558 11.315 24.751 14.851 38.541 1.414 1.061-0.707-4.95 0.707-2.121 0.354 2.122 0.707 8.84 2.122 9.9-1.061-6.718-2.829-14.851-4.243-16.265 1.061 0.707-1.768-8.133-3.536-10.254-0.707-5.657-5.657-15.558-9.901-22.984-15.204-29.702-42.431-54.099-72.839-67.536 0-0.707-1.768-1.414-2.476-2.121-30.055-12.729-66.122-16.265-100.773-8.133-35.006 8.486-67.889 28.641-91.227 57.636 1.061-3.536 9.901-10.254 10.255-13.083-10.254 10.961-21.215 25.459-28.641 41.016-7.779 15.558-12.022 31.47-13.79 43.138" fill="#ffffff" fill-rule="nonzero" stroke="none" stroke-width="1" stroke-linecap="butt" stroke-linejoin="miter" stroke-miterlimit="10" stroke-dasharray="" stroke-dashoffset="0" font-family="none" font-weight="none" font-size="none" text-anchor="none" style="mix-blend-mode: normal" data-fill-palette-color="tertiary"></path></g><g transform="matrix(1,0,0,1,76.47746909633906,90)"><svg viewBox="0 0 167.04506180732187 180" height="180" width="167.04506180732187"><g><svg viewBox="0 0 167.04506180732187 180" height="180" width="167.04506180732187"><g><svg viewBox="0 0 205.2020418670439 221.116189466721" height="180" width="167.04506180732187"><g><svg viewBox="0 0 205.2020418670439 221.116189466721" height="221.116189466721" width="205.2020418670439"><g id="textblocktransform"><svg viewBox="0 0 205.2020418670439 221.116189466721" height="221.116189466721" width="205.2020418670439" id="textblock"><g><svg viewBox="0 0 205.2020418670439 178.88760000000002" height="178.88760000000002" width="205.2020418670439"><g transform="matrix(1,0,0,1,0,0)"><svg width="205.2020418670439" viewBox="0.5 -35.349998474121094 40.54999923706055 35.349998474121094" height="178.88760000000002" data-palette-color="#6b7280"><path d="M12 0L0.5 0 2.9-8.45 2.9-14.8 6.6-16.3 13.6-35.35 28.65-35.35 37.2-12.95 41.05-5.85 41.05 0 30.2 0 27.7-7.45 14.15-7.45 12 0ZM20.6-26.15L17.45-16.2 24.95-16.2 21.65-26.15 20.6-26.15Z" opacity="1" transform="matrix(1,0,0,1,0,0)" fill="#ffffff" class="wordmark-text-0" data-fill-palette-color="primary" id="text-0"></path></svg></g></svg></g><g transform="matrix(1,0,0,1,0,204.99159414240003)"><svg viewBox="0 0 205.2020418670439 16.124595324320996" height="16.124595324320996" width="205.2020418670439"><g transform="matrix(1,0,0,1,0,0)"><svg width="205.2020418670439" viewBox="2 -35.75 464.4599914550781 36.5" height="16.124595324320996" data-palette-color="#97978d"><path d="M15.5 0.75Q9.1 0.75 5.55-2.78 2-6.3 2-12.5L2-12.5Q2-18.7 5.55-22.23 9.1-25.75 15.5-25.75L15.5-25.75Q20.1-25.75 22.43-24.15 24.75-22.55 24.75-20.25L24.75-20.25Q24.75-18.55 23.73-17.53 22.7-16.5 21-16.5L21-16.5Q20.3-16.5 19.6-16.6L19.6-16.6 19-16.75 19-24.25 18.3-24.5Q17.55-24.75 16.5-24.75L16.5-24.75Q13.65-24.75 12.08-22.05 10.5-19.35 10.5-12.5L10.5-12.5Q10.5-5.85 12.08-3.18 13.65-0.5 16.5-0.5L16.5-0.5Q18.45-0.5 20.13-1.43 21.8-2.35 22.78-3.88 23.75-5.4 23.75-7L23.75-7 25-7Q25-5 23.8-3.2 22.6-1.4 20.45-0.33 18.3 0.75 15.5 0.75L15.5 0.75ZM41.75 0.75Q35.55 0.75 32.02-2.78 28.5-6.3 28.5-12.5L28.5-12.5Q28.5-18.7 32.02-22.23 35.55-25.75 41.75-25.75L41.75-25.75Q47.95-25.75 51.47-22.23 55-18.7 55-12.5L55-12.5Q55-6.3 51.47-2.78 47.95 0.75 41.75 0.75L41.75 0.75ZM41.75-0.25Q43.75-0.25 45.12-3.05 46.5-5.85 46.5-12.5L46.5-12.5Q46.5-19.15 45.12-21.95 43.75-24.75 41.75-24.75L41.75-24.75Q39.75-24.75 38.37-21.95 37-19.15 37-12.5L37-12.5Q37-5.85 38.37-3.05 39.75-0.25 41.75-0.25L41.75-0.25ZM69.25 0.75Q66.3 0.75 64-0.78 61.7-2.3 60.35-5.28 59-8.25 59-12.5L59-12.5Q59-18.9 61.97-22.33 64.95-25.75 70-25.75L70-25.75Q72.4-25.75 74.2-24.75L74.2-24.75Q74.95-24.4 75.75-23.75L75.75-23.75 75.75-33.5 72.75-34.25 72.75-35 79.25-35Q83.75-35 83.75-30.5L83.75-30.5 83.75-1.5 86.75-0.75 86.75 0 82.25 0Q79.25 0 77.59-1.85L77.59-1.85Q76.9-2.6 76.5-3.75L76.5-3.75Q75.84-2.5 74.84-1.5L74.84-1.5Q72.59 0.75 69.25 0.75L69.25 0.75ZM71.25-1Q73.09-1 74.59-3L74.59-3Q75.15-3.75 75.75-5L75.75-5 75.75-22.25Q75.2-22.8 74.59-23.25L74.59-23.25Q73.25-24.25 72-24.25L72-24.25Q69.84-24.25 68.67-21.75 67.5-19.25 67.5-12.5L67.5-12.5Q67.5-6.05 68.57-3.53 69.65-1 71.25-1L71.25-1ZM103.49 0.75Q97.09 0.75 93.54-2.78 89.99-6.3 89.99-12.5L89.99-12.5Q89.99-16.55 91.54-19.55 93.09-22.55 95.87-24.15 98.64-25.75 102.24-25.75L102.24-25.75Q105.84-25.75 108.57-24.4 111.29-23.05 112.77-20.78 114.24-18.5 114.24-15.75L114.24-15.75Q114.24-14.5 113.99-13.6L113.99-13.6 113.74-12.75Q111.59-12.3 109.09-12L109.09-12Q103.84-11.25 98.49-11.25L98.49-11.25Q98.49-5.45 100.09-2.98 101.69-0.5 104.49-0.5L104.49-0.5Q106.44-0.5 108.12-1.43 109.79-2.35 110.77-3.88 111.74-5.4 111.74-7L111.74-7 112.99-7Q112.99-5 111.79-3.2 110.59-1.4 108.44-0.33 106.29 0.75 103.49 0.75L103.49 0.75ZM98.49-12.5Q101.69-12.5 103.69-12.75L103.69-12.75Q104.54-12.8 105.49-13L105.49-13Q105.54-13.25 105.74-14.1L105.74-14.1Q105.99-15.35 105.99-16.75L105.99-16.75Q105.99-20.9 104.89-22.83 103.79-24.75 102.24-24.75L102.24-24.75Q98.49-24.75 98.49-12.5L98.49-12.5ZM144.99 0.75Q141.69 0.75 139.26-0.45 136.84-1.65 135.54-3.75 134.24-5.85 134.24-8.5L134.24-8.5 134.24-23.75 130.74-23.75 130.74-25 134.24-25 134.24-27.5Q134.24-32 138.74-32L138.74-32 142.24-32 142.24-25 149.24-25 149.24-23.75 142.24-23.75 142.24-8.5Q142.24-3.9 143.19-2.2 144.14-0.5 145.99-0.5L145.99-0.5Q147.79-0.5 149.14-2.25 150.49-4 150.49-7L150.49-7 151.74-7Q151.74-3.3 149.89-1.28 148.04 0.75 144.99 0.75L144.99 0.75ZM167.74 0.75Q161.54 0.75 158.01-2.78 154.49-6.3 154.49-12.5L154.49-12.5Q154.49-18.7 158.01-22.23 161.54-25.75 167.74-25.75L167.74-25.75Q173.94-25.75 177.46-22.23 180.99-18.7 180.99-12.5L180.99-12.5Q180.99-6.3 177.46-2.78 173.94 0.75 167.74 0.75L167.74 0.75ZM167.74-0.25Q169.74-0.25 171.11-3.05 172.49-5.85 172.49-12.5L172.49-12.5Q172.49-19.15 171.11-21.95 169.74-24.75 167.74-24.75L167.74-24.75Q165.74-24.75 164.36-21.95 162.99-19.15 162.99-12.5L162.99-12.5Q162.99-5.85 164.36-3.05 165.74-0.25 167.74-0.25L167.74-0.25ZM209.23 0.75Q206.28 0.75 203.98-0.78 201.68-2.3 200.33-5.28 198.98-8.25 198.98-12.5L198.98-12.5Q198.98-18.9 201.96-22.33 204.93-25.75 209.98-25.75L209.98-25.75Q212.38-25.75 214.18-24.75L214.18-24.75Q214.93-24.4 215.73-23.75L215.73-23.75 215.73-33.5 212.73-34.25 212.73-35 219.23-35Q223.73-35 223.73-30.5L223.73-30.5 223.73-1.5 226.73-0.75 226.73 0 222.23 0Q219.23 0 217.58-1.85L217.58-1.85Q216.88-2.6 216.48-3.75L216.48-3.75Q215.83-2.5 214.83-1.5L214.83-1.5Q212.58 0.75 209.23 0.75L209.23 0.75ZM211.23-1Q213.08-1 214.58-3L214.58-3Q215.13-3.75 215.73-5L215.73-5 215.73-22.25Q215.18-22.8 214.58-23.25L214.58-23.25Q213.23-24.25 211.98-24.25L211.98-24.25Q209.83-24.25 208.66-21.75 207.48-19.25 207.48-12.5L207.48-12.5Q207.48-6.05 208.56-3.53 209.63-1 211.23-1L211.23-1ZM243.48 0.75Q237.08 0.75 233.53-2.78 229.98-6.3 229.98-12.5L229.98-12.5Q229.98-16.55 231.53-19.55 233.08-22.55 235.85-24.15 238.63-25.75 242.23-25.75L242.23-25.75Q245.83-25.75 248.55-24.4 251.28-23.05 252.75-20.78 254.23-18.5 254.23-15.75L254.23-15.75Q254.23-14.5 253.98-13.6L253.98-13.6 253.73-12.75Q251.58-12.3 249.08-12L249.08-12Q243.83-11.25 238.48-11.25L238.48-11.25Q238.48-5.45 240.08-2.98 241.68-0.5 244.48-0.5L244.48-0.5Q246.43-0.5 248.1-1.43 249.78-2.35 250.75-3.88 251.73-5.4 251.73-7L251.73-7 252.98-7Q252.98-5 251.78-3.2 250.58-1.4 248.43-0.33 246.28 0.75 243.48 0.75L243.48 0.75ZM238.48-12.5Q241.68-12.5 243.68-12.75L243.68-12.75Q244.53-12.8 245.48-13L245.48-13Q245.53-13.25 245.73-14.1L245.73-14.1Q245.98-15.35 245.98-16.75L245.98-16.75Q245.98-20.9 244.88-22.83 243.78-24.75 242.23-24.75L242.23-24.75Q238.48-24.75 238.48-12.5L238.48-12.5ZM271.48 0.75Q265.08 0.75 261.53-2.78 257.98-6.3 257.98-12.5L257.98-12.5Q257.98-18.7 261.53-22.23 265.08-25.75 271.48-25.75L271.48-25.75Q276.08-25.75 278.4-24.15 280.73-22.55 280.73-20.25L280.73-20.25Q280.73-18.55 279.7-17.53 278.68-16.5 276.98-16.5L276.98-16.5Q276.28-16.5 275.58-16.6L275.58-16.6 274.98-16.75 274.98-24.25 274.28-24.5Q273.53-24.75 272.48-24.75L272.48-24.75Q269.63-24.75 268.05-22.05 266.48-19.35 266.48-12.5L266.48-12.5Q266.48-5.85 268.05-3.18 269.63-0.5 272.48-0.5L272.48-0.5Q274.43-0.5 276.1-1.43 277.78-2.35 278.75-3.88 279.73-5.4 279.73-7L279.73-7 280.98-7Q280.98-5 279.78-3.2 278.58-1.4 276.43-0.33 274.28 0.75 271.48 0.75L271.48 0.75ZM297.72 0.75Q291.52 0.75 288-2.78 284.47-6.3 284.47-12.5L284.47-12.5Q284.47-18.7 288-22.23 291.52-25.75 297.72-25.75L297.72-25.75Q303.92-25.75 307.45-22.23 310.97-18.7 310.97-12.5L310.97-12.5Q310.97-6.3 307.45-2.78 303.92 0.75 297.72 0.75L297.72 0.75ZM297.72-0.25Q299.72-0.25 301.1-3.05 302.47-5.85 302.47-12.5L302.47-12.5Q302.47-19.15 301.1-21.95 299.72-24.75 297.72-24.75L297.72-24.75Q295.72-24.75 294.35-21.95 292.97-19.15 292.97-12.5L292.97-12.5Q292.97-5.85 294.35-3.05 295.72-0.25 297.72-0.25L297.72-0.25ZM325.22 0.75Q322.27 0.75 319.97-0.78 317.67-2.3 316.32-5.28 314.97-8.25 314.97-12.5L314.97-12.5Q314.97-18.9 317.95-22.33 320.92-25.75 325.97-25.75L325.97-25.75Q328.37-25.75 330.17-24.75L330.17-24.75Q330.92-24.4 331.72-23.75L331.72-23.75 331.72-33.5 328.72-34.25 328.72-35 335.22-35Q339.72-35 339.72-30.5L339.72-30.5 339.72-1.5 342.72-0.75 342.72 0 338.22 0Q335.22 0 333.57-1.85L333.57-1.85Q332.87-2.6 332.47-3.75L332.47-3.75Q331.82-2.5 330.82-1.5L330.82-1.5Q328.57 0.75 325.22 0.75L325.22 0.75ZM327.22-1Q329.07-1 330.57-3L330.57-3Q331.12-3.75 331.72-5L331.72-5 331.72-22.25Q331.17-22.8 330.57-23.25L330.57-23.25Q329.22-24.25 327.97-24.25L327.97-24.25Q325.82-24.25 324.65-21.75 323.47-19.25 323.47-12.5L323.47-12.5Q323.47-6.05 324.55-3.53 325.62-1 327.22-1L327.22-1ZM359.47 0.75Q353.07 0.75 349.52-2.78 345.97-6.3 345.97-12.5L345.97-12.5Q345.97-16.55 347.52-19.55 349.07-22.55 351.84-24.15 354.62-25.75 358.22-25.75L358.22-25.75Q361.82-25.75 364.54-24.4 367.27-23.05 368.74-20.78 370.22-18.5 370.22-15.75L370.22-15.75Q370.22-14.5 369.97-13.6L369.97-13.6 369.72-12.75Q367.57-12.3 365.07-12L365.07-12Q359.82-11.25 354.47-11.25L354.47-11.25Q354.47-5.45 356.07-2.98 357.67-0.5 360.47-0.5L360.47-0.5Q362.42-0.5 364.09-1.43 365.77-2.35 366.74-3.88 367.72-5.4 367.72-7L367.72-7 368.97-7Q368.97-5 367.77-3.2 366.57-1.4 364.42-0.33 362.27 0.75 359.47 0.75L359.47 0.75ZM354.47-12.5Q357.67-12.5 359.67-12.75L359.67-12.75Q360.52-12.8 361.47-13L361.47-13Q361.52-13.25 361.72-14.1L361.72-14.1Q361.97-15.35 361.97-16.75L361.97-16.75Q361.97-20.9 360.87-22.83 359.77-24.75 358.22-24.75L358.22-24.75Q354.47-24.75 354.47-12.5L354.47-12.5ZM387.96 0L387.96-0.75 390.96-1.5 390.96-33.5 387.96-34.25 387.96-35 394.46-35Q398.96-35 398.96-30.5L398.96-30.5 398.96-1.5 401.96-0.75 401.96 0 387.96 0ZM404.96 0L404.96-0.75 407.96-1.5 407.96-23.5 404.96-24.25 404.96-25 411.46-25Q415.96-25 415.96-20.5L415.96-20.5 415.96-1.5 418.96-0.75 418.96 0 404.96 0ZM411.46-28Q409.96-28 408.96-29 407.96-30 407.96-31.5L407.96-31.5Q407.96-33 408.96-34 409.96-35 411.46-35L411.46-35Q412.96-35 413.96-34 414.96-33 414.96-31.5L414.96-31.5Q414.96-30 413.96-29 412.96-28 411.46-28L411.46-28ZM421.71 0L421.71-0.75 424.71-1.5 424.71-22.75 421.21-22.75 421.21-24 424.71-24 424.71-26.5Q424.71-29.15 425.98-31.25 427.26-33.35 429.63-34.55 432.01-35.75 435.21-35.75L435.21-35.75Q437.81-35.75 439.68-34.98 441.56-34.2 442.51-32.93 443.46-31.65 443.46-30.25L443.46-30.25Q443.46-28.55 442.43-27.53 441.41-26.5 439.71-26.5L439.71-26.5Q439.01-26.5 438.31-26.6L438.31-26.6 437.71-26.75 437.71-34.5 437.26-34.6Q437.06-34.65 436.81-34.7 436.56-34.75 436.21-34.75L436.21-34.75Q434.51-34.75 433.61-32.98 432.71-31.2 432.71-26.5L432.71-26.5 432.71-24 440.71-24 440.71-22.75 432.71-22.75 432.71-1.5 435.71-0.75 435.71 0 421.71 0ZM455.71 0.75Q449.31 0.75 445.76-2.78 442.21-6.3 442.21-12.5L442.21-12.5Q442.21-16.55 443.76-19.55 445.31-22.55 448.08-24.15 450.86-25.75 454.46-25.75L454.46-25.75Q458.06-25.75 460.78-24.4 463.51-23.05 464.98-20.78 466.46-18.5 466.46-15.75L466.46-15.75Q466.46-14.5 466.21-13.6L466.21-13.6 465.96-12.75Q463.81-12.3 461.31-12L461.31-12Q456.06-11.25 450.71-11.25L450.71-11.25Q450.71-5.45 452.31-2.98 453.91-0.5 456.71-0.5L456.71-0.5Q458.66-0.5 460.33-1.43 462.01-2.35 462.98-3.88 463.96-5.4 463.96-7L463.96-7 465.21-7Q465.21-5 464.01-3.2 462.81-1.4 460.66-0.33 458.51 0.75 455.71 0.75L455.71 0.75ZM450.71-12.5Q453.91-12.5 455.91-12.75L455.91-12.75Q456.76-12.8 457.71-13L457.71-13Q457.76-13.25 457.96-14.1L457.96-14.1Q458.21-15.35 458.21-16.75L458.21-16.75Q458.21-20.9 457.11-22.83 456.01-24.75 454.46-24.75L454.46-24.75Q450.71-24.75 450.71-12.5L450.71-12.5Z" opacity="1" transform="matrix(1,0,0,1,0,0)" fill="#ffffff" class="slogan-text-1" data-fill-palette-color="secondary" id="text-1"></path></svg></g></svg></g></svg></g></svg></g><g></g></svg></g></svg></g></svg></g></svg></g><defs></defs></svg><rect width="320" height="360" fill="none" stroke="none" visibility="hidden"></rect></g></svg></g></svg>